<?xml version="1.0" encoding="UTF-8"?>
<svg width="706px" height="685px" viewBox="0 0 706 685" version="1.1" xmlns="http://www.w3.org/2000/svg" xmlns:xlink="http://www.w3.org/1999/xlink">
    <!-- Generator: Sketch 46.2 (44496) - http://www.bohemiancoding.com/sketch -->
    <title>Icon</title>
    <desc>Created with Sketch.</desc>
    <defs></defs>
    <g id="Page-1" stroke="none" stroke-width="1" fill="none" fill-rule="evenodd">
        <g id="Icon" fill-rule="nonzero">
            <g id="Emojione_1F44B-(1)">
                <g id="Group" transform="translate(0.000000, 1.000000)" fill="#42ADE2">
                    <path d="M166.37634,537.403273 C160.47647,536.220372 155.756574,535.03747 149.856703,532.671667 C143.956833,530.305864 139.236937,529.122963 134.517041,526.75716 C123.897274,522.025553 114.457482,516.111046 105.01769,509.013637 C86.1381051,496.00172 70.7984426,478.258197 58.9987021,456.965969 C47.1989617,436.856644 40.1191175,413.198613 38.9391434,390.723484 C37.7591694,378.894469 38.9391434,368.248355 40.1191175,356.41934 C41.2990915,350.504832 42.4790655,345.773226 43.6590396,339.858718 C44.8390136,333.944211 47.1989617,329.212605 48.3789358,323.298097 L49.5589098,339.858718 C49.5589098,345.773226 50.7388838,350.504832 51.9188579,356.41934 C53.0988319,367.065454 55.45878,377.711567 57.8187281,387.174779 C62.5386243,407.284105 69.6184685,426.21053 80.2382349,443.954053 C90.8580013,461.697576 102.657742,478.258197 117.997404,493.635917 C125.077249,500.733326 133.337067,507.830735 141.596885,514.928144 C145.136807,518.476849 149.856703,522.025553 154.5766,525.574258 L166.37634,537.403273" id="Shape"></path>
                    <path d="M162.836418,579.987728 C159.296496,582.353531 154.5766,583.536433 149.856703,584.719334 C145.136807,585.902236 141.596885,587.085137 136.876989,587.085137 C128.617171,588.268039 119.177378,589.45094 109.737586,588.268039 C92.0379753,587.085137 73.1583906,582.353531 57.8187281,574.073221 C41.2990915,565.79291 27.139403,552.780993 17.6996106,537.403273 C12.9797145,530.305864 8.2598183,522.025553 4.71989617,513.745243 C3.53992213,510.196538 2.35994809,505.464932 1.17997404,500.733326 C1.17997404,497.184621 4.4408921e-16,493.635917 4.4408921e-16,488.904311 C3.53992213,492.453015 5.89987021,496.00172 8.2598183,498.367523 C11.7997404,501.916227 14.1596885,505.464932 16.5196366,507.830735 C22.4195068,513.745243 27.139403,519.65975 33.0392732,524.391356 C44.8390136,535.03747 56.6387541,544.500682 70.7984426,551.598092 C83.778157,558.695501 99.1178196,564.610008 113.277508,569.341614 C120.357352,571.707417 128.617171,572.890319 136.876989,575.256122 C140.416911,576.439024 145.136807,576.439024 148.676729,577.621925 C154.5766,578.804827 158.116522,578.804827 162.836418,579.987728" id="Shape"></path>
                    <path d="M429.510552,5.09758669 C435.410422,6.28048821 440.130318,8.64629126 446.030188,11.0120943 C451.930058,13.3778974 456.649955,15.7437004 461.369851,18.1095035 C471.989617,24.0240111 481.429409,29.9385187 490.869202,37.0359279 C509.748786,51.2307462 525.088449,70.1571706 535.708215,91.4493981 C546.327982,112.741626 552.227852,136.399656 552.227852,158.874785 C552.227852,170.7038 551.047878,181.349914 548.68793,193.178929 C547.507956,199.093437 546.327982,203.825043 543.968034,209.739551 C541.608086,215.654058 540.428112,220.385664 538.068163,225.11727 L536.888189,208.556649 C536.888189,202.642141 536.888189,197.910535 535.708215,191.996028 C534.528241,181.349914 533.348267,170.7038 532.168293,160.057687 C528.628371,139.948361 521.548527,119.839035 512.108735,100.91261 C502.668942,81.9861859 490.869202,65.4255645 476.709513,50.0478447 C469.629669,41.767534 461.369851,34.6701248 454.290006,26.3898141 C450.750084,22.8411096 446.030188,19.292405 441.310292,15.7437004 L429.510552,5.09758669" id="Shape"></path>
                    <path d="M532.168293,0.365980583 C536.888189,1.54888211 540.428112,2.73178363 543.968034,5.09758669 C547.507956,6.28048821 552.227852,8.64629126 555.767774,11.0120943 C562.847618,15.7437004 569.927463,20.4753065 577.007307,26.3898141 C589.987021,38.2188294 600.606788,52.4136477 606.506658,68.9742691 C613.586502,85.5348904 615.94645,103.278413 613.586502,121.021936 C612.406528,129.302247 610.04658,137.582558 607.686632,145.862868 C606.506658,149.411573 604.14671,154.143179 602.966736,157.691883 C600.606788,161.240588 599.426814,164.789293 595.886892,168.337997 C595.886892,163.606391 595.886892,160.057687 595.886892,156.508982 C595.886892,152.960277 595.886892,148.228671 595.886892,144.679967 C595.886892,136.399656 594.706918,129.302247 594.706918,122.204838 C592.346969,106.827118 589.987021,92.6322996 584.087151,79.6203828 C578.187281,65.4255645 571.107437,53.5965492 562.847618,40.5846325 C558.127722,34.6701248 553.407826,27.5727157 548.68793,21.658208 C546.327982,18.1095035 543.968034,15.7437004 540.428112,12.1949958 C538.068163,6.28048821 534.528241,2.73178363 532.168293,0.365980583" id="Shape"></path>
                </g>
                <g id="Group" transform="translate(69.000000, 1.000000)" fill="#FFDD67">
                    <path d="M26.0757701,176.27849 C2.29867234,186.904161 -6.0233119,215.239283 4.67638212,238.851885 L154.472098,549.357598 L237.691941,510.396805 L87.8962245,198.710462 C77.1965304,175.09786 49.852868,164.472189 26.0757701,176.27849" id="Shape"></path>
                    <path d="M419.586739,423.030179 L507.562001,381.708126 L336.366897,27.5190984 C324.478348,3.90649662 295.94583,-6.71917419 270.979878,5.08712671 C247.20278,16.8934276 236.503086,45.2285498 248.391635,70.0217817 L419.586739,423.030179" id="Shape"></path>
                </g>
                <path d="M337.965854,4.81437613 C335.643902,5.99285964 333.321951,7.17134314 331,9.52831016 C353.058537,3.63589262 376.278049,14.2422442 386.726829,35.4549474 L553.907317,389 L569,381.929099 L401.819512,28.3840463 C390.209756,3.63589262 362.346341,-6.97045896 337.965854,4.81437613" id="Shape" fill="#EBA352"></path>
                <path d="M298.862642,512 L389,468.453317 L216.919589,108.310484 C205.213439,83.5947991 174.777448,71.8254255 150.194532,83.5947991 C125.611617,95.3641728 115.076081,125.964544 126.782232,150.680229 L298.862642,512" id="Shape" fill="#FFDD67"></path>
                <path d="M158.141104,83.8583676 C155.760736,85.0537859 153.380368,86.2492042 151,88.6400409 C173.613497,82.6629493 199.797546,93.4217141 210.509202,116.134662 L318.815951,344.459562 L345,360 L225.981595,108.962152 C214.079755,82.6629493 184.325153,71.9041844 158.141104,83.8583676" id="Shape" fill="#EBA352"></path>
                <path d="M378.862642,440 L469,396.407855 L296.919589,35.8890371 C285.213439,11.1475496 254.777448,-0.634111169 230.194532,12.3257156 C205.611617,24.1073764 195.076081,54.7396942 206.782232,79.4811818 L378.862642,440" id="Shape" fill="#FFDD67"></path>
                <g id="Group" transform="translate(83.000000, 3.000000)" fill="#EBA352">
                    <path d="M146.526874,4.94368421 C144.136183,6.11609023 141.745492,8.46090226 139.354801,9.63330827 C162.066364,3.7712782 188.363964,14.3229323 199.122073,36.5986466 L322.242652,289.838346 L348.540252,305.079624 L214.661563,29.5642105 C202.708109,3.7712782 171.629128,-6.78037594 146.526874,4.94368421" id="Shape"></path>
                    <path d="M7.86680328,172.597744 C5.47611241,173.77015 3.08542155,174.942556 0.694730679,177.287368 C22.2109485,171.425338 44.9225117,181.976992 54.4852752,203.080301 L144.136183,387.148045 L170.433782,402.389323 L70.0247658,196.045865 C59.2666569,171.425338 31.7737119,160.873684 7.86680328,172.597744" id="Shape"></path>
                </g>
                <path d="M690.643833,138.763278 C658.82519,114.062888 606.972586,141.115696 581.046285,225.802745 C563.369261,284.613195 561.012324,302.256331 523.30134,319.899466 L502.088911,276.379732 C502.088911,276.379732 167.403926,437.520367 180.367077,463.396966 C180.367077,463.396966 220.434998,588.075121 288.786157,645.709363 C390.134427,732.74883 627.006547,639.828318 637.612761,415.172396 C643.505102,284.613195 724.819412,165.816085 690.643833,138.763278" id="Shape" fill="#FFDD67"></path>
                <g id="Group" transform="translate(321.000000, 133.000000)" fill="#EBA352">
                    <path d="M370.851695,8.54790381 C364.956568,3.82223341 357.882415,1.45939821 350.808263,0.277980612 C351.987288,1.45939821 354.345339,1.45939821 355.524364,2.64081581 C390.895127,29.8134206 354.345339,92.4285534 334.301907,149.136598 C317.795551,194.030467 303.647246,240.105753 306.005297,284.999622 C315.4375,481.114944 118.540254,574.446934 0.637711864,539.004406 C116.182203,587.442528 330.764831,495.291955 321.332627,290.90671 C318.974576,246.012841 331.943856,202.30039 349.629237,155.043686 C368.493644,98.3356414 405.043432,35.7205086 370.851695,8.54790381" id="Shape"></path>
                    <path d="M214.041314,185.760544 C140.941737,194.030467 33.6504237,299.176634 109.108051,413.774141 C53.6938559,297.995216 144.478814,220.021654 202.251059,192.849049 C208.146186,188.123379 214.041314,185.760544 214.041314,185.760544" id="Shape"></path>
                </g>
            </g>
        </g>
    </g>
</svg>